<svg width="25" height="24" viewBox="0 0 25 24" fill="none" xmlns="http://www.w3.org/2000/svg">
<path d="M16.2288 10.3281V15.9141C16.2288 16.1793 16.3342 16.4336 16.5217 16.6212C16.7092 16.8087 16.9636 16.9141 17.2288 16.9141C17.494 16.9141 17.7484 16.8087 17.9359 16.6212C18.1235 16.4336 18.2288 16.1793 18.2288 15.9141V7.91407C18.2292 7.78263 18.2036 7.65242 18.1535 7.53092C18.1034 7.40941 18.0297 7.29901 17.9368 7.20608C17.8439 7.11314 17.7335 7.0395 17.612 6.98938C17.4905 6.93927 17.3602 6.91367 17.2288 6.91407H9.22882C8.9636 6.91407 8.70925 7.01942 8.52171 7.20696C8.33417 7.3945 8.22882 7.64885 8.22882 7.91407C8.22882 8.17928 8.33417 8.43364 8.52171 8.62117C8.70925 8.80871 8.9636 8.91407 9.22882 8.91407H14.8138L8.03582 15.6921C7.94291 15.7849 7.86919 15.8951 7.81888 16.0165C7.76858 16.1378 7.74266 16.2679 7.74261 16.3992C7.74257 16.5306 7.76839 16.6606 7.81861 16.782C7.86884 16.9034 7.94247 17.0137 8.03532 17.1066C8.12816 17.1995 8.2384 17.2732 8.35973 17.3235C8.48106 17.3738 8.61111 17.3997 8.74246 17.3998C8.87381 17.3998 9.00388 17.374 9.12525 17.3238C9.24662 17.2735 9.35691 17.1999 9.44982 17.1071L16.2288 10.3281Z" fill="black"/>
</svg>
