<svg width="164" height="48" viewBox="0 0 164 48" fill="none" xmlns="http://www.w3.org/2000/svg">
<path fill-rule="evenodd" clip-rule="evenodd" d="M1.5 39.7384C1.5 39.3124 1.66924 38.9038 1.97049 38.6026C2.27173 38.3013 2.68031 38.1321 3.10634 38.1321H33.0913C33.5174 38.1321 33.9259 38.3013 34.2272 38.6026C34.5284 38.9038 34.6977 39.3124 34.6977 39.7384C34.6977 40.1644 34.5284 40.573 34.2272 40.8743C33.9259 41.1755 33.5174 41.3448 33.0913 41.3448H3.10634C2.68031 41.3448 2.27173 41.1755 1.97049 40.8743C1.66924 40.573 1.5 40.1644 1.5 39.7384ZM7.92535 46.1638C7.92535 45.7377 8.09459 45.3292 8.39584 45.0279C8.69709 44.7267 9.10567 44.5574 9.53169 44.5574H26.666C27.092 44.5574 27.5006 44.7267 27.8018 45.0279C28.1031 45.3292 28.2723 45.7377 28.2723 46.1638C28.2723 46.5898 28.1031 46.9984 27.8018 47.2996C27.5006 47.6009 27.092 47.7701 26.666 47.7701H9.53169C9.10567 47.7701 8.69709 47.6009 8.39584 47.2996C8.09459 46.9984 7.92535 46.5898 7.92535 46.1638Z" fill="#F17835"/>
<path d="M17.4561 35.3662C13.2575 35.3662 9.63277 33.6595 6.58195 30.2462C3.56135 26.8028 2.05105 22.8609 2.05105 18.4206C2.05105 13.7386 3.44052 9.88736 6.21948 6.86676C9.02865 3.84615 12.6534 2.33585 17.0937 2.33585C20.5674 2.33585 23.588 3.22693 26.1555 5.00909C28.723 6.76104 30.0068 8.72443 30.0068 10.8993C30.0068 11.8054 29.7198 12.5455 29.1459 13.1194C28.572 13.6631 27.7866 13.935 26.7898 13.935C25.8836 13.935 25.0832 13.6329 24.3884 13.0288C23.6937 12.4247 23.0896 11.6997 22.5761 10.854C22.0626 9.97798 21.5189 9.10201 20.9449 8.22603C20.4012 7.35005 19.6763 6.61001 18.7701 6.00589C17.8639 5.40176 16.8218 5.0997 15.6438 5.0997C13.7408 5.0997 12.1097 5.96058 10.7504 7.68232C9.39112 9.37386 8.71148 11.594 8.71148 14.3428C8.71148 18.6622 9.7838 22.2265 11.9284 25.0357C14.1033 27.8449 16.6255 29.2494 19.495 29.2494C23.0594 29.2494 25.9138 27.3465 28.0585 23.5405C28.4209 23.027 28.8891 22.8609 29.463 23.0421C30.037 23.1931 30.2937 23.6009 30.2333 24.2654C29.9614 27.3767 28.723 30.0046 26.518 32.1492C24.3129 34.2939 21.2923 35.3662 17.4561 35.3662ZM50.8433 28.0261C51.1151 27.6636 51.4474 27.5428 51.8401 27.6636C52.2328 27.7845 52.414 28.0714 52.3838 28.5245C52.2328 30.0952 51.3266 31.6357 49.6652 33.146C48.0039 34.6261 45.8442 35.3662 43.186 35.3662C39.9842 35.3662 37.3563 34.309 35.3023 32.1945C33.2482 30.0801 32.2212 27.3012 32.2212 23.8577C32.2212 20.6256 33.2936 17.9675 35.4382 15.8833C37.5828 13.7688 40.1654 12.7116 43.186 12.7116C45.9348 12.7116 48.0492 13.3611 49.5293 14.6599C51.0094 15.9588 51.7495 17.454 51.7495 19.1455C51.7495 20.535 51.0849 21.5318 49.7559 22.1359L39.6972 26.7121C40.9357 29.3401 42.9293 30.654 45.678 30.654C46.8259 30.654 47.8529 30.4124 48.7591 29.9291C49.6954 29.4156 50.3902 28.7813 50.8433 28.0261ZM42.3705 14.7052C41.1924 14.7052 40.256 15.2791 39.5613 16.427C38.8666 17.5446 38.5192 18.9794 38.5192 20.7313C38.5192 22.2114 38.6702 23.5103 38.9723 24.6279L44.8172 21.6828C45.6025 21.2902 45.9952 20.5803 45.9952 19.5533C45.9952 18.5263 45.6629 17.4691 44.9984 16.3817C44.3339 15.264 43.4579 14.7052 42.3705 14.7052ZM55.2478 34.9131C54.5531 34.9131 54.2057 34.6563 54.2057 34.1428V33.9616C54.2057 33.6595 54.4927 33.1913 55.0666 32.557C55.6707 31.9227 55.9728 31.2582 55.9728 30.5634V8.27134C55.9728 7.48598 55.6707 6.77614 55.0666 6.14181C54.4927 5.50749 54.2057 5.0695 54.2057 4.82785V4.64661C54.2057 4.28414 54.5078 3.98208 55.1119 3.74043L60.8208 0.931266C61.4249 0.689619 61.878 0.659413 62.1801 0.840649C62.5124 1.02188 62.6785 1.32395 62.6785 1.74683V30.5634C62.6785 31.2582 62.9957 31.9227 63.63 32.557C64.2945 33.1913 64.6268 33.6595 64.6268 33.9616V34.1428C64.6268 34.6563 64.2794 34.9131 63.5847 34.9131H55.2478ZM85.2548 28.0261C85.5267 27.6636 85.8589 27.5428 86.2516 27.6636C86.6443 27.7845 86.8255 28.0714 86.7953 28.5245C86.6443 30.0952 85.7381 31.6357 84.0768 33.146C82.4154 34.6261 80.2557 35.3662 77.5976 35.3662C74.3957 35.3662 71.7678 34.309 69.7138 32.1945C67.6598 30.0801 66.6328 27.3012 66.6328 23.8577C66.6328 20.6256 67.7051 17.9675 69.8497 15.8833C71.9944 13.7688 74.577 12.7116 77.5976 12.7116C80.3463 12.7116 82.4608 13.3611 83.9409 14.6599C85.4209 15.9588 86.161 17.454 86.161 19.1455C86.161 20.535 85.4965 21.5318 84.1674 22.1359L74.1088 26.7121C75.3472 29.3401 77.3408 30.654 80.0896 30.654C81.2374 30.654 82.2644 30.4124 83.1706 29.9291C84.107 29.4156 84.8017 28.7813 85.2548 28.0261ZM76.782 14.7052C75.604 14.7052 74.6676 15.2791 73.9729 16.427C73.2781 17.5446 72.9307 18.9794 72.9307 20.7313C72.9307 22.2114 73.0818 23.5103 73.3838 24.6279L79.2287 21.6828C80.0141 21.2902 80.4067 20.5803 80.4067 19.5533C80.4067 18.5263 80.0745 17.4691 79.4099 16.3817C78.7454 15.264 77.8694 14.7052 76.782 14.7052ZM98.3134 35.3209C95.474 35.3209 93.1482 34.8074 91.3358 33.7804C89.5234 32.7534 88.6172 31.5149 88.6172 30.065C88.6172 29.2494 88.8589 28.6302 89.3422 28.2073C89.8557 27.7845 90.5202 27.573 91.3358 27.573C92.2118 27.573 92.9216 27.8902 93.4653 28.5245C94.009 29.1286 94.3866 29.8083 94.598 30.5634C94.8397 31.3186 95.2626 32.0133 95.8667 32.6476C96.501 33.2518 97.3166 33.5538 98.3134 33.5538C99.28 33.5538 100.065 33.2971 100.669 32.7836C101.304 32.2701 101.621 31.53 101.621 30.5634C101.621 29.476 101.183 28.6151 100.307 27.9808C99.4612 27.3465 98.4191 26.8783 97.1807 26.5762C95.9422 26.2439 94.7038 25.8815 93.4653 25.4888C92.2269 25.0659 91.1697 24.3561 90.2937 23.3593C89.4479 22.3323 89.025 21.0032 89.025 19.3721C89.025 17.4389 89.8708 15.8531 91.5623 14.6146C93.2841 13.346 95.5042 12.7116 98.2228 12.7116C100.972 12.7116 103.207 13.2553 104.929 14.3428C106.68 15.4 107.556 16.6686 107.556 18.1487C107.556 18.8133 107.3 19.3721 106.786 19.8252C106.303 20.2782 105.699 20.5048 104.974 20.5048C104.128 20.5048 103.448 20.2027 102.935 19.5986C102.421 18.9643 102.059 18.2846 101.848 17.5597C101.636 16.8046 101.258 16.1249 100.715 15.5208C100.171 14.8865 99.4612 14.5693 98.5852 14.5693C97.7093 14.5693 96.9994 14.8714 96.4557 15.4755C95.912 16.0494 95.6402 16.7592 95.6402 17.605C95.6402 18.4508 95.8667 19.1606 96.3198 19.7345C96.7729 20.3085 97.3619 20.7464 98.0868 21.0485C98.8118 21.3506 99.6123 21.6375 100.488 21.9094C101.364 22.151 102.24 22.438 103.116 22.7702C104.022 23.0723 104.838 23.4499 105.563 23.903C106.288 24.3561 106.877 25.0055 107.33 25.8513C107.783 26.6668 108.01 27.6636 108.01 28.8417C108.01 30.7144 107.134 32.2701 105.382 33.5085C103.63 34.7167 101.274 35.3209 98.3134 35.3209ZM119.045 35.3662C116.931 35.3662 115.254 34.7016 114.016 33.3726C112.808 32.0133 112.203 30.065 112.203 27.5277V15.7926H110.074C109.47 15.7926 109.168 15.4906 109.168 14.8865V14.1162C109.168 13.4819 109.47 13.1647 110.074 13.1647H111.207C112.445 13.1647 113.487 12.7569 114.333 11.9414C115.209 11.1258 115.768 10.0384 116.009 8.67912C116.16 7.95418 116.508 7.5917 117.052 7.5917H117.958C118.622 7.5917 118.955 7.95418 118.955 8.67912L119 13.1647H124.21C124.452 13.1647 124.663 13.2553 124.845 13.4366C125.026 13.6178 125.117 13.8444 125.117 14.1162V14.8865C125.117 15.1583 125.026 15.3849 124.845 15.5661C124.663 15.7171 124.452 15.7926 124.21 15.7926H119V27.6183C119 28.4943 119.211 29.2041 119.634 29.7478C120.087 30.2614 120.646 30.5181 121.311 30.5181C122.881 30.5181 123.908 29.8385 124.392 28.4792C124.663 28.0865 124.996 27.9355 125.388 28.0261C125.811 28.0865 126.023 28.3282 126.023 28.751C126.023 30.503 125.388 32.0435 124.12 33.3726C122.881 34.7016 121.19 35.3662 119.045 35.3662ZM135.841 8.86036C135.056 9.5853 133.998 9.94778 132.669 9.94778C131.34 9.94778 130.253 9.5853 129.407 8.86036C128.592 8.10521 128.184 7.13861 128.184 5.96058C128.184 4.81275 128.592 3.87636 129.407 3.15141C130.253 2.39626 131.34 2.01869 132.669 2.01869C133.998 2.01869 135.056 2.39626 135.841 3.15141C136.657 3.87636 137.064 4.81275 137.064 5.96058C137.064 7.13861 136.657 8.10521 135.841 8.86036ZM128.546 34.9131C127.882 34.9131 127.549 34.6563 127.549 34.1428V33.9616C127.549 33.6595 127.836 33.1913 128.41 32.557C128.984 31.9227 129.271 31.243 129.271 30.5181V20.2782C129.271 19.5231 128.984 18.8133 128.41 18.1487C127.836 17.4842 127.549 17.0311 127.549 16.7894V16.6535C127.549 16.3515 127.867 16.0343 128.501 15.702L134.165 12.8929C134.738 12.6512 135.192 12.6361 135.524 12.8476C135.856 13.0288 136.022 13.346 136.022 13.799V30.5181C136.022 31.243 136.339 31.9227 136.974 32.557C137.608 33.1913 137.925 33.6595 137.925 33.9616V34.1428C137.925 34.6563 137.578 34.9131 136.883 34.9131H128.546ZM160.72 30.3822C160.81 31.0769 160.976 31.6357 161.218 32.0586C161.49 32.4815 161.762 32.7534 162.034 32.8742C162.305 32.9648 162.547 33.0856 162.758 33.2366C162.97 33.3877 163.076 33.5991 163.076 33.871C163.076 34.747 161.626 35.1849 158.726 35.1849C157.397 35.1849 156.415 35.0188 155.781 34.6865C155.177 34.3241 154.814 33.6746 154.693 32.7382C153.515 34.4902 151.507 35.3662 148.667 35.3662C146.13 35.3662 144.076 34.7772 142.505 33.5991C140.935 32.4211 140.149 30.7295 140.149 28.5245C140.119 26.3497 140.889 24.6581 142.46 23.4499C144.031 22.2416 145.994 21.6375 148.35 21.6375C150.344 21.6375 151.99 22.0906 153.289 22.9968L153.244 22.4531C152.942 19.5835 152.519 17.5597 151.975 16.3817C151.431 15.2036 150.51 14.6146 149.211 14.6146C148.396 14.6146 147.731 14.9167 147.217 15.5208C146.704 16.1249 146.342 16.7894 146.13 17.5144C145.919 18.2393 145.571 18.9039 145.088 19.508C144.605 20.1121 143.985 20.4142 143.23 20.4142C142.415 20.4142 141.75 20.1876 141.237 19.7345C140.753 19.2512 140.512 18.632 140.512 17.8769C140.512 16.3062 141.342 15.0526 143.004 14.1162C144.695 13.1798 146.764 12.7116 149.211 12.7116C152.141 12.7116 154.542 13.5423 156.415 15.2036C158.288 16.865 159.391 19.1304 159.723 22L160.72 30.3822ZM150.661 33.3726C151.658 33.3726 152.458 32.9648 153.062 32.1492C153.666 31.3035 153.938 30.352 153.878 29.2948L153.742 27.7089C153.621 26.4101 153.228 25.4133 152.564 24.7185C151.93 24.0238 151.129 23.6764 150.163 23.6764C149.196 23.6764 148.396 24.0238 147.761 24.7185C147.157 25.4133 146.855 26.3346 146.855 27.4824C146.855 29.1135 147.202 30.503 147.897 31.6508C148.622 32.7987 149.543 33.3726 150.661 33.3726Z" fill="#F17835"/>
</svg>
