<svg width="52" height="52" viewBox="0 0 52 52" fill="none" xmlns="http://www.w3.org/2000/svg">
<path fill-rule="evenodd" clip-rule="evenodd" d="M9.40137 40.9052C9.40137 40.4791 9.57061 40.0706 9.87185 39.7693C10.1731 39.4681 10.5817 39.2988 11.0077 39.2988H40.9927C41.4187 39.2988 41.8273 39.4681 42.1285 39.7693C42.4298 40.0706 42.599 40.4791 42.599 40.9052C42.599 41.3312 42.4298 41.7398 42.1285 42.041C41.8273 42.3423 41.4187 42.5115 40.9927 42.5115H11.0077C10.5817 42.5115 10.1731 42.3423 9.87185 42.041C9.57061 41.7398 9.40137 41.3312 9.40137 40.9052ZM15.8267 47.3305C15.8267 46.9045 15.996 46.4959 16.2972 46.1947C16.5985 45.8934 17.007 45.7242 17.4331 45.7242H34.5673C34.9934 45.7242 35.4019 45.8934 35.7032 46.1947C36.0044 46.4959 36.1737 46.9045 36.1737 47.3305C36.1737 47.7565 36.0044 48.1651 35.7032 48.4664C35.4019 48.7676 34.9934 48.9369 34.5673 48.9369H17.4331C17.007 48.9369 16.5985 48.7676 16.2972 48.4664C15.996 48.1651 15.8267 47.7565 15.8267 47.3305Z" fill="#F17835"/>
<path d="M13.3273 32.8735C12.1192 30.672 11.5053 28.1939 11.5462 25.683C11.587 23.1722 12.2812 20.7153 13.5603 18.5543C14.8394 16.3934 16.6593 14.6028 18.8408 13.359C21.0223 12.1153 23.4902 11.4612 26.0013 11.4612C28.5125 11.4612 30.9803 12.1153 33.1619 13.359C35.3434 14.6028 37.1633 16.3934 38.4424 18.5543C39.7215 20.7153 40.4156 23.1722 40.4565 25.683C40.4973 28.1939 39.8835 30.672 38.6753 32.8735H47.4181C47.8441 32.8735 48.2527 33.0427 48.554 33.344C48.8552 33.6452 49.0244 34.0538 49.0244 34.4798C49.0244 34.9059 48.8552 35.3144 48.554 35.6157C48.2527 35.9169 47.8441 36.0862 47.4181 36.0862H4.58241C4.15639 36.0862 3.74781 35.9169 3.44656 35.6157C3.14531 35.3144 2.97607 34.9059 2.97607 34.4798C2.97607 34.0538 3.14531 33.6452 3.44656 33.344C3.74781 33.0427 4.15639 32.8735 4.58241 32.8735H13.3273Z" fill="#F17835"/>
<path fill-rule="evenodd" clip-rule="evenodd" d="M26.0003 2.88843C26.4263 2.88843 26.8349 3.05767 27.1361 3.35891C27.4374 3.66016 27.6066 4.06874 27.6066 4.49477V6.63655C27.6066 7.06258 27.4374 7.47116 27.1361 7.7724C26.8349 8.07365 26.4263 8.24289 26.0003 8.24289C25.5742 8.24289 25.1657 8.07365 24.8644 7.7724C24.5632 7.47116 24.3939 7.06258 24.3939 6.63655V4.49477C24.3939 4.06874 24.5632 3.66016 24.8644 3.35891C25.1657 3.05767 25.5742 2.88843 26.0003 2.88843ZM9.72055 9.63291C10.0217 9.33209 10.43 9.16313 10.8557 9.16313C11.2814 9.16313 11.6897 9.33209 11.9908 9.63291L12.8326 10.4725C13.1253 10.7753 13.2874 11.181 13.284 11.6022C13.2805 12.0234 13.1118 12.4263 12.8141 12.7243C12.5164 13.0223 12.1136 13.1914 11.6924 13.1953C11.2712 13.1991 10.8654 13.0374 10.5623 12.7449L9.72055 11.9032C9.41974 11.602 9.25077 11.1937 9.25077 10.7681C9.25077 10.3424 9.41974 9.9341 9.72055 9.63291ZM42.28 9.63291C42.5808 9.9341 42.7497 10.3424 42.7497 10.7681C42.7497 11.1937 42.5808 11.602 42.28 11.9032L41.4382 12.7449C41.1337 13.0287 40.731 13.1831 40.3148 13.1758C39.8987 13.1685 39.5016 12.9999 39.2073 12.7056C38.913 12.4113 38.7444 12.0142 38.7371 11.598C38.7297 11.1819 38.8842 10.7791 39.168 10.4746L40.0097 9.63291C40.3109 9.33209 40.7191 9.16313 41.1448 9.16313C41.5705 9.16313 41.9788 9.33209 42.28 9.63291ZM2.97607 25.9126C2.97607 25.4866 3.14531 25.078 3.44656 24.7768C3.74781 24.4755 4.15639 24.3063 4.58241 24.3063H6.7242C7.15022 24.3063 7.5588 24.4755 7.86005 24.7768C8.1613 25.078 8.33054 25.4866 8.33054 25.9126C8.33054 26.3386 8.1613 26.7472 7.86005 27.0485C7.5588 27.3497 7.15022 27.519 6.7242 27.519H4.58241C4.15639 27.519 3.74781 27.3497 3.44656 27.0485C3.14531 26.7472 2.97607 26.3386 2.97607 25.9126ZM43.67 25.9126C43.67 25.4866 43.8392 25.078 44.1405 24.7768C44.4417 24.4755 44.8503 24.3063 45.2763 24.3063H47.4181C47.8441 24.3063 48.2527 24.4755 48.554 24.7768C48.8552 25.078 49.0244 25.4866 49.0244 25.9126C49.0244 26.3386 48.8552 26.7472 48.554 27.0485C48.2527 27.3497 47.8441 27.519 47.4181 27.519H45.2763C44.8503 27.519 44.4417 27.3497 44.1405 27.0485C43.8392 26.7472 43.67 26.3386 43.67 25.9126Z" fill="#F17835"/>
</svg>
